<svg xmlns="http://www.w3.org/2000/svg" xml:space="preserve" width="512" height="512" id="blockchain">
  <path fill="#231F20" d="M249.098 43.469h13.805v97.265h-13.805zM249.098 371.267h13.805v97.265h-13.805z"></path>
  <path fill="#FFB600" fill-rule="evenodd" d="m256 43.469 92.025 53.135 92.029 53.131v212.53l-92.029 53.131L256 468.531l-92.025-53.135-92.028-53.131v-212.53l92.028-53.131z" clip-rule="evenodd"></path>
  <path fill="#0C06F9" fill-rule="evenodd" d="m256 140.733-49.91 28.816-49.914 28.817v115.268l49.914 28.817L256 371.267l49.915-28.816 49.909-28.817V198.366l-49.909-28.817z" clip-rule="evenodd"></path>
  <path fill="#F58220" fill-rule="evenodd" d="M156.176 248.067v15.871l34.682 20.018q-.02.398-.021.794c0 8.36 6.78 15.14 15.141 15.14s15.141-6.78 15.141-15.14c0-8.356-6.78-15.136-15.141-15.136-3.041 0-5.873.899-8.248 2.443z" clip-rule="evenodd"></path>
  <path fill="#00D2FC" fill-rule="evenodd" d="M156.176 248.067v15.871l34.682 20.018q-.02.398-.021.794c0 8.36 6.78 15.14 15.141 15.14s15.141-6.78 15.141-15.14c0-8.356-6.78-15.136-15.141-15.136-3.041 0-5.873.899-8.248 2.443z" clip-rule="evenodd"></path>
  <path fill="#C156E8" fill-rule="evenodd" d="M355.824 198.366 256 256.002v115.265l99.824-57.633z" clip-rule="evenodd"></path>
  <path fill="#0C06F9" fill-rule="evenodd" d="m299.01 346.435 13.804-7.968v-40.173c4.891-2.511 8.236-7.602 8.236-13.479 0-8.356-6.78-15.137-15.136-15.137-8.361 0-15.141 6.78-15.141 15.137 0 5.877 3.35 10.968 8.236 13.479v48.141z" clip-rule="evenodd"></path>
  <path fill="#0C06F9" d="M156.176 206.301 68.52 155.693l6.849-11.915 87.679 50.62-6.872 3.968zM348.956 194.398l83.973-48.482 6.848 11.915-83.953 48.47v-7.935zM163.061 317.606l-76.894 44.398-6.903-11.915 76.912-44.406v7.951zM355.824 305.683l80.242 46.328-6.9 11.914-80.226-46.319 6.884-3.972z"></path>
  <path fill="#00D2FC" fill-rule="evenodd" d="M71.947 178.756c15.982 0 29.021-13.038 29.021-29.021 0-15.987-13.038-29.021-29.021-29.021-15.987 0-29.021 13.034-29.021 29.021-.001 15.983 13.033 29.021 29.021 29.021M440.054 178.756c15.982 0 29.021-13.038 29.021-29.021 0-15.987-13.038-29.021-29.021-29.021s-29.021 13.034-29.021 29.021c0 15.983 13.039 29.021 29.021 29.021M71.947 391.285c15.982 0 29.021-13.038 29.021-29.021 0-15.987-13.038-29.021-29.021-29.021-15.987 0-29.021 13.034-29.021 29.021-.001 15.983 13.033 29.021 29.021 29.021M440.054 391.285c15.982 0 29.021-13.038 29.021-29.021 0-15.987-13.038-29.021-29.021-29.021s-29.021 13.034-29.021 29.021c0 15.983 13.039 29.021 29.021 29.021" clip-rule="evenodd"></path>
  <path fill="#0C06F9" d="M249.1 144.717V70.006h13.8v74.711l-6.9-3.984zM249.1 446.868v-79.585l6.9 3.984 6.9-3.984v79.585z"></path>
  <path fill="#00D2FC" fill-rule="evenodd" d="M256 72.49c15.986 0 29.021-13.038 29.021-29.021 0-15.986-13.034-29.021-29.021-29.021s-29.021 13.034-29.021 29.021c0 15.983 13.034 29.021 29.021 29.021M256 497.552c15.986 0 29.021-13.038 29.021-29.021 0-15.987-13.034-29.025-29.021-29.025s-29.021 13.038-29.021 29.025c0 15.983 13.034 29.021 29.021 29.021" clip-rule="evenodd"></path>
  <path fill="#F58220" fill-rule="evenodd" d="m256 256.002-99.824-57.636L256 140.733l43.025 24.84-34.79 20.091a15.06 15.06 0 0 0-8.235-2.435c-8.356 0-15.137 6.775-15.137 15.136s6.78 15.14 15.137 15.14c8.36 0 15.139-6.78 15.139-15.14q0-.392-.019-.778l41.678-24.063 43.025 24.841z" clip-rule="evenodd"></path>
</svg>
