<svg xmlns="http://www.w3.org/2000/svg" version="1.1" xmlns:xlink="http://www.w3.org/1999/xlink" width="1500" height="218" viewBox="0 0 1500 218"><svg xml:space="preserve" width="1500" height="218" data-version="2" data-id="lg_fQYUGhKfcE6a2mzrnR" viewBox="0 0 576 218" x="0" y="0"><rect width="100%" height="100%" fill="transparent"></rect><path fill="#ffdb99" d="M97.636 2.136C48.377 5.62 9.024 44.972 5.541 94.231c-.272 3.844 2.763 7.117 6.616 7.117h85.966a6.632 6.632 0 0 0 6.632-6.632V8.752c0-3.853-3.273-6.886-7.117-6.616ZM219.53 94.812C216.049 45.553 176.696 6.2 127.437 2.717c-3.844-.272-7.117 2.763-7.117 6.616v85.966a6.632 6.632 0 0 0 6.632 6.632h85.964c3.853 0 6.886-3.273 6.616-7.117Zm-9.386 20.159c-49.259 3.483-88.612 42.836-92.095 92.095-.272 3.844 2.763 7.117 6.616 7.117h85.966a6.632 6.632 0 0 0 6.632-6.632v-85.964c0-3.853-3.273-6.886-7.117-6.616ZM5.54 123.769c3.483 49.259 42.836 88.612 92.095 92.095 3.844.272 7.117-2.763 7.117-6.616v-85.966a6.632 6.632 0 0 0-6.632-6.632H12.156c-3.853 0-6.886 3.273-6.616 7.117Zm250.525 57.801q-3.15 0-6.22-.79-3.08-.79-5.48-1.95-2.4-1.16-3.6-2.36l3.98-7.13q.82.68 2.58 1.76 1.77 1.09 4.09 1.92 2.33.82 4.65.82 3.83 0 6.41-1.8 2.59-1.8 2.59-5.25 0-2.85-1.5-4.72-1.5-1.88-3.94-3.3-2.43-1.43-5.25-2.74-2.81-1.31-5.36-2.96-2.92-1.95-5.1-5.18-2.17-3.22-2.17-8.32 0-5.03 2.28-8.25 2.29-3.23 6.08-4.84 3.79-1.61 8.29-1.61 3.6 0 6.15.75 2.55.75 4.27 1.8 1.73 1.05 2.7 1.87l-3.97 6.83q-1.28-1.35-3.83-2.52-2.55-1.16-5.7-1.16-3.67 0-5.85 1.69-2.17 1.69-2.17 4.99 0 2.92 1.95 4.98 1.95 2.07 4.98 3.75 3.04 1.69 6.27 3.42 3.22 1.72 5.7 4.05 2.02 1.8 3.45 4.5 1.42 2.7 1.42 6.07 0 5.1-2.36 8.63-2.36 3.52-6.34 5.28-3.97 1.77-9 1.77m35.18-.75h-8.48v-55.13h12.15q7.2 0 11.55 2.1 4.35 2.1 6.3 5.81 1.95 3.72 1.95 8.52 0 8.77-5.1 13.53-5.1 4.77-15.45 4.77h-2.92zm0-47.78v19.95h3.15q4.95 0 7.5-1.57 2.55-1.58 3.45-3.9.9-2.33.9-4.5 0-2.63-.98-4.88-.97-2.25-3.37-3.67-2.4-1.43-6.75-1.43zm55.57 47.78h-24.3v-55.13h8.48v47.63h15.82zm17.48 0h-8.4v-55.13h8.4zm31.5 0h-8.33v-47.78h-14.1v-7.35h36.68v7.35h-14.25zm35.02.75q-3.15 0-6.22-.79-3.08-.79-5.48-1.95-2.4-1.16-3.6-2.36l3.98-7.13q.82.68 2.58 1.76 1.77 1.09 4.09 1.92 2.33.82 4.65.82 3.83 0 6.41-1.8 2.59-1.8 2.59-5.25 0-2.85-1.5-4.72-1.5-1.88-3.94-3.3-2.43-1.43-5.25-2.74-2.81-1.31-5.36-2.96-2.92-1.95-5.1-5.18-2.17-3.22-2.17-8.32 0-5.03 2.28-8.25 2.29-3.23 6.08-4.84 3.79-1.61 8.29-1.61 3.6 0 6.15.75 2.55.75 4.27 1.8 1.73 1.05 2.7 1.87l-3.97 6.83q-1.28-1.35-3.83-2.52-2.55-1.16-5.7-1.16-3.67 0-5.85 1.69-2.17 1.69-2.17 4.99 0 2.92 1.95 4.98 1.95 2.07 4.98 3.75 3.04 1.69 6.27 3.42 3.22 1.72 5.7 4.05 2.02 1.8 3.45 4.5 1.42 2.7 1.42 6.07 0 5.1-2.36 8.63-2.36 3.52-6.34 5.28-3.97 1.77-9 1.77m19.65-.75 26.4-55.2h.83l26.55 55.2h-9.68l-4.72-10.8h-25.28l-4.72 10.8zm26.93-39.23h-.15l-3.3 7.5-6 13.35h18.6l-5.93-13.27zm39.75 39.23h-8.33v-55.13h25.88v7.28h-17.55v15.6h13.65v7.35h-13.65zm53.32 0h-26.62v-55.13h24.15v7.35h-15.83v15.23h12.75v7.5h-12.75v17.62h18.3z"></path></svg></svg>